<mxfile host="app.diagrams.net" modified="2024-03-24T07:39:07.623Z" agent="Mozilla/5.0 (Windows NT 10.0; Win64; x64) AppleWebKit/537.36 (KHTML, like Gecko) Chrome/122.0.0.0 Safari/537.36 Edg/122.0.0.0" etag="cnToaRxQiuapxDr8uEuN" version="24.0.7" type="github">
  <diagram name="第 1 页" id="6BAypdQ1cC2goyPUFBz_">
    <mxGraphModel dx="1282" dy="577" grid="1" gridSize="10" guides="1" tooltips="1" connect="1" arrows="1" fold="1" page="1" pageScale="1" pageWidth="827" pageHeight="1169" math="0" shadow="0">
      <root>
        <mxCell id="0" />
        <mxCell id="1" parent="0" />
        <mxCell id="3i4GO7zNPIlZMBXZX13L-1" value="" style="rounded=0;whiteSpace=wrap;html=1;" vertex="1" parent="1">
          <mxGeometry x="220" y="260" width="120" height="60" as="geometry" />
        </mxCell>
        <mxCell id="3i4GO7zNPIlZMBXZX13L-2" value="" style="rounded=0;whiteSpace=wrap;html=1;" vertex="1" parent="1">
          <mxGeometry x="230" y="270" width="120" height="60" as="geometry" />
        </mxCell>
        <mxCell id="3i4GO7zNPIlZMBXZX13L-3" value="" style="edgeStyle=orthogonalEdgeStyle;rounded=0;orthogonalLoop=1;jettySize=auto;html=1;" edge="1" parent="1" source="3i4GO7zNPIlZMBXZX13L-4" target="3i4GO7zNPIlZMBXZX13L-13">
          <mxGeometry relative="1" as="geometry" />
        </mxCell>
        <mxCell id="3i4GO7zNPIlZMBXZX13L-4" value="&lt;font style=&quot;font-size: 15px;&quot;&gt;训练输入&lt;/font&gt;" style="rounded=0;whiteSpace=wrap;html=1;" vertex="1" parent="1">
          <mxGeometry x="240" y="280" width="120" height="60" as="geometry" />
        </mxCell>
        <mxCell id="3i4GO7zNPIlZMBXZX13L-5" value="" style="rounded=0;whiteSpace=wrap;html=1;" vertex="1" parent="1">
          <mxGeometry x="640" y="260" width="120" height="60" as="geometry" />
        </mxCell>
        <mxCell id="3i4GO7zNPIlZMBXZX13L-6" value="" style="rounded=0;whiteSpace=wrap;html=1;" vertex="1" parent="1">
          <mxGeometry x="650" y="270" width="120" height="60" as="geometry" />
        </mxCell>
        <mxCell id="3i4GO7zNPIlZMBXZX13L-7" value="" style="edgeStyle=orthogonalEdgeStyle;rounded=0;orthogonalLoop=1;jettySize=auto;html=1;" edge="1" parent="1" source="3i4GO7zNPIlZMBXZX13L-8" target="3i4GO7zNPIlZMBXZX13L-13">
          <mxGeometry relative="1" as="geometry" />
        </mxCell>
        <mxCell id="3i4GO7zNPIlZMBXZX13L-8" value="&lt;font style=&quot;font-size: 15px;&quot;&gt;训练标签&lt;/font&gt;" style="rounded=0;whiteSpace=wrap;html=1;" vertex="1" parent="1">
          <mxGeometry x="660" y="280" width="120" height="60" as="geometry" />
        </mxCell>
        <mxCell id="3i4GO7zNPIlZMBXZX13L-9" value="" style="edgeStyle=orthogonalEdgeStyle;rounded=0;orthogonalLoop=1;jettySize=auto;html=1;" edge="1" parent="1" source="3i4GO7zNPIlZMBXZX13L-10" target="3i4GO7zNPIlZMBXZX13L-15">
          <mxGeometry relative="1" as="geometry" />
        </mxCell>
        <mxCell id="3i4GO7zNPIlZMBXZX13L-10" value="&lt;font style=&quot;font-size: 15px;&quot;&gt;输入&lt;/font&gt;" style="rounded=0;whiteSpace=wrap;html=1;" vertex="1" parent="1">
          <mxGeometry x="240" y="420" width="120" height="60" as="geometry" />
        </mxCell>
        <mxCell id="3i4GO7zNPIlZMBXZX13L-11" value="&lt;font style=&quot;font-size: 15px;&quot;&gt;输出&lt;/font&gt;" style="rounded=0;whiteSpace=wrap;html=1;" vertex="1" parent="1">
          <mxGeometry x="660" y="420" width="120" height="60" as="geometry" />
        </mxCell>
        <mxCell id="3i4GO7zNPIlZMBXZX13L-12" value="" style="edgeStyle=orthogonalEdgeStyle;rounded=0;orthogonalLoop=1;jettySize=auto;html=1;" edge="1" parent="1" source="3i4GO7zNPIlZMBXZX13L-13" target="3i4GO7zNPIlZMBXZX13L-15">
          <mxGeometry relative="1" as="geometry" />
        </mxCell>
        <mxCell id="3i4GO7zNPIlZMBXZX13L-13" value="&lt;font style=&quot;font-size: 15px;&quot;&gt;监督学习&lt;/font&gt;" style="rounded=1;whiteSpace=wrap;html=1;fillColor=#dae8fc;strokeColor=#6c8ebf;" vertex="1" parent="1">
          <mxGeometry x="440" y="280" width="120" height="60" as="geometry" />
        </mxCell>
        <mxCell id="3i4GO7zNPIlZMBXZX13L-14" value="" style="edgeStyle=orthogonalEdgeStyle;rounded=0;orthogonalLoop=1;jettySize=auto;html=1;" edge="1" parent="1" source="3i4GO7zNPIlZMBXZX13L-15" target="3i4GO7zNPIlZMBXZX13L-11">
          <mxGeometry relative="1" as="geometry" />
        </mxCell>
        <mxCell id="3i4GO7zNPIlZMBXZX13L-15" value="&lt;font style=&quot;font-size: 15px;&quot;&gt;神经网络模型&lt;/font&gt;" style="rounded=1;whiteSpace=wrap;html=1;fillColor=#f8cecc;strokeColor=#b85450;" vertex="1" parent="1">
          <mxGeometry x="440" y="420" width="120" height="60" as="geometry" />
        </mxCell>
      </root>
    </mxGraphModel>
  </diagram>
</mxfile>
